<?xml version="1.0" encoding="utf-8"?>
<!-- Generator: Adobe Illustrator 17.0.0, SVG Export Plug-In . SVG Version: 6.00 Build 0)  -->
<!DOCTYPE svg PUBLIC "-//W3C//DTD SVG 1.1//EN" "http://www.w3.org/Graphics/SVG/1.1/DTD/svg11.dtd">
<svg version="1.1" id="Capa_1" xmlns="http://www.w3.org/2000/svg" xmlns:xlink="http://www.w3.org/1999/xlink" x="0px" y="0px"
	 width="70px" height="48px" viewBox="0 0 70 48" enable-background="new 0 0 70 48" xml:space="preserve">
<path fill="#ED9706" d="M59,20.006C60.199,9.219,49.636,0,39,0c-9.324,0-18.992,7.09-19.908,16.173C10.425,14.871,3,21.603,3,30
	c0,7.732,6.268,14,14,14h38c6.627,0,12-5.373,12-12C67,25.265,62,20.006,59,20.006z"/>
<path fill="#F5BA06" d="M39,0c-9.324,0-18.992,7.09-19.908,16.173C10.425,14.871,3,21.603,3,30c0,7.732,6.268,14,14,14h0.747
	L54.589,7.159C50.729,2.818,44.877,0,39,0z"/>
<path fill="#212121" d="M27,20.692v19.54c-3.922-0.925-8,1.018-8,3.768c0,2.21,2.686,4,6,4s6-1.79,6-4V23.308l12-5.25v14.174
	c-3.922-0.925-8,1.018-8,3.768c0,2.21,2.687,4,6,4s6-1.79,6-4V11.942L27,20.692z"/>
</svg>
